<svg viewBox="0 0 960 520" xmlns="http://www.w3.org/2000/svg" font-family="system-ui, sans-serif">
  <defs>
    <marker id="a" markerWidth="10" markerHeight="10" refX="9" refY="5" orient="auto"><path d="M0,0 L10,5 L0,10 z" fill="#64748b"/></marker>
    <marker id="am" markerWidth="10" markerHeight="10" refX="9" refY="5" orient="auto"><path d="M0,0 L10,5 L0,10 z" fill="#d97706"/></marker>
    <marker id="ag" markerWidth="10" markerHeight="10" refX="9" refY="5" orient="auto"><path d="M0,0 L10,5 L0,10 z" fill="#0d9488"/></marker>
  </defs>

  <rect x="30" y="60" width="110" height="64" rx="6" fill="#f8fafc" stroke="#94a3b8"/>
  <text x="85" y="86" font-size="16" fill="#334155" text-anchor="middle">Intake</text>
  <text x="85" y="106" font-size="12" fill="#64748b" text-anchor="middle">docs, feeds</text>

  <rect x="180" y="60" width="120" height="64" rx="6" fill="#eff6ff" stroke="#3b82f6"/>
  <text x="240" y="86" font-size="16" fill="#1e3a8a" text-anchor="middle">Classify</text>
  <text x="240" y="106" font-size="12" fill="#3b82f6" text-anchor="middle">doc type</text>

  <rect x="340" y="60" width="140" height="64" rx="6" fill="#eff6ff" stroke="#3b82f6"/>
  <text x="410" y="86" font-size="16" fill="#1e3a8a" text-anchor="middle">Extract</text>
  <text x="410" y="106" font-size="12" fill="#3b82f6" text-anchor="middle">per-field confidence</text>

  <rect x="520" y="60" width="150" height="64" rx="6" fill="#f0fdfa" stroke="#0d9488" stroke-width="2"/>
  <text x="595" y="86" font-size="16" fill="#134e4a" text-anchor="middle">Validate</text>
  <text x="595" y="106" font-size="12" fill="#0f766e" text-anchor="middle">reconcile + rules</text>

  <rect x="710" y="60" width="120" height="64" rx="6" fill="#fffbeb" stroke="#d97706"/>
  <text x="770" y="86" font-size="16" fill="#92400e" text-anchor="middle">Execute</text>
  <text x="770" y="106" font-size="12" fill="#b45309" text-anchor="middle">idempotent</text>

  <rect x="860" y="60" width="80" height="64" rx="6" fill="#fafafa" stroke="#94a3b8" stroke-dasharray="5 3"/>
  <text x="900" y="86" font-size="14" fill="#64748b" text-anchor="middle">QA</text>
  <text x="900" y="104" font-size="12" fill="#94a3b8" text-anchor="middle">sample</text>

  <line x1="140" y1="92" x2="178" y2="92" stroke="#64748b" stroke-width="1.5" marker-end="url(#a)"/>
  <line x1="300" y1="92" x2="338" y2="92" stroke="#64748b" stroke-width="1.5" marker-end="url(#a)"/>
  <line x1="480" y1="92" x2="518" y2="92" stroke="#64748b" stroke-width="1.5" marker-end="url(#a)"/>
  <line x1="670" y1="92" x2="708" y2="92" stroke="#64748b" stroke-width="1.5" marker-end="url(#a)"/>
  <line x1="830" y1="92" x2="858" y2="92" stroke="#64748b" stroke-width="1.5" marker-end="url(#a)"/>
  <text x="595" y="40" font-size="13" fill="#0f766e" text-anchor="middle">straight-through path: zero human touches</text>

  <rect x="180" y="240" width="420" height="70" rx="6" fill="#fffbeb" stroke="#d97706" stroke-width="2"/>
  <text x="390" y="268" font-size="16" fill="#92400e" text-anchor="middle">Human review queues</text>
  <text x="390" y="290" font-size="13" fill="#b45309" text-anchor="middle">confidence-routed exceptions, purpose-built UI</text>

  <line x1="240" y1="124" x2="260" y2="238" stroke="#d97706" stroke-width="1.5" stroke-dasharray="5 3" marker-end="url(#am)"/>
  <line x1="410" y1="124" x2="390" y2="238" stroke="#d97706" stroke-width="1.5" stroke-dasharray="5 3" marker-end="url(#am)"/>
  <line x1="595" y1="124" x2="530" y2="238" stroke="#d97706" stroke-width="1.5" stroke-dasharray="5 3" marker-end="url(#am)"/>
  <text x="470" y="180" font-size="13" fill="#b45309">low confidence or failed checks</text>

  <line x1="480" y1="240" x2="700" y2="130" stroke="#0d9488" stroke-width="1.5" stroke-dasharray="5 3" marker-end="url(#ag)"/>
  <text x="620" y="205" font-size="13" fill="#0f766e">approved</text>

  <rect x="680" y="240" width="240" height="70" rx="6" fill="#f0fdfa" stroke="#0d9488"/>
  <text x="800" y="268" font-size="16" fill="#134e4a" text-anchor="middle">Corrections flywheel</text>
  <text x="800" y="290" font-size="13" fill="#0f766e" text-anchor="middle">labels feed evals + thresholds</text>
  <line x1="600" y1="290" x2="678" y2="285" stroke="#64748b" stroke-width="1.5" marker-end="url(#a)"/>
  <line x1="900" y1="124" x2="850" y2="238" stroke="#94a3b8" stroke-width="1.5" stroke-dasharray="5 3" marker-end="url(#a)"/>

  <rect x="30" y="380" width="910" height="60" rx="6" fill="#fafafa" stroke="#94a3b8" stroke-dasharray="6 4"/>
  <text x="485" y="405" font-size="15" fill="#334155" text-anchor="middle">Audit trail (compliance record, multi-year retention)</text>
  <text x="485" y="427" font-size="13" fill="#64748b" text-anchor="middle">doc version · extraction values · model + prompt versions · validations run · who approved · when executed</text>

  <text x="485" y="480" font-size="14" fill="#64748b" text-anchor="middle">Autonomy ratchet: launch in shadow mode, measure per-field accuracy, raise straight-through thresholds per task type</text>
</svg>
